<?xml version="1.0" encoding="UTF-8" standalone="no"?><svg xmlns="http://www.w3.org/2000/svg" xmlns:xlink="http://www.w3.org/1999/xlink" contentScriptType="application/ecmascript" contentStyleType="text/css" height="740px" preserveAspectRatio="none" style="width:753px;height:740px;" version="1.1" viewBox="0 0 753 740" width="753px" zoomAndPan="magnify"><defs><filter height="300%" id="f1muoa7h8r45c8" width="300%" x="-1" y="-1"><feGaussianBlur result="blurOut" stdDeviation="2.0"/><feColorMatrix in="blurOut" result="blurOut2" type="matrix" values="0 0 0 0 0 0 0 0 0 0 0 0 0 0 0 0 0 0 .4 0"/><feOffset dx="4.0" dy="4.0" in="blurOut2" result="blurOut3"/><feBlend in="SourceGraphic" in2="blurOut3" mode="normal"/></filter></defs><g><!--class ProcessManager--><rect fill="#FEFECE" filter="url(#f1muoa7h8r45c8)" height="186.3594" id="ProcessManager" style="stroke: #A80036; stroke-width: 1.5;" width="194" x="50" y="83.5"/><ellipse cx="95.75" cy="99.5" fill="#ADD1B2" rx="11" ry="11" style="stroke: #A80036; stroke-width: 1.0;"/><path d="M98.5156,95.375 Q98.6719,95.1563 98.8594,95.0469 Q99.0469,94.9375 99.2656,94.9375 Q99.6406,94.9375 99.875,95.1953 Q100.1094,95.4531 100.1094,96.0625 L100.1094,97.5156 Q100.1094,98.125 99.875,98.3906 Q99.6406,98.6563 99.2656,98.6563 Q98.9219,98.6563 98.7188,98.4531 Q98.5156,98.2656 98.4063,97.75 Q98.3594,97.3906 98.1719,97.2031 Q97.8438,96.8281 97.2344,96.6094 Q96.625,96.3906 96,96.3906 Q95.2344,96.3906 94.6016,96.7188 Q93.9688,97.0469 93.4766,97.7969 Q92.9844,98.5469 92.9844,99.5781 L92.9844,100.6719 Q92.9844,101.9063 93.875,102.7266 Q94.7656,103.5469 96.3594,103.5469 Q97.2969,103.5469 97.9531,103.2969 Q98.3438,103.1406 98.7656,102.7031 Q99.0313,102.4375 99.1797,102.3594 Q99.3281,102.2813 99.5313,102.2813 Q99.8594,102.2813 100.1172,102.5391 Q100.375,102.7969 100.375,103.1406 Q100.375,103.4844 100.0313,103.8906 Q99.5313,104.4688 98.7344,104.7969 Q97.6563,105.25 96.3594,105.25 Q94.8438,105.25 93.6406,104.625 Q92.6563,104.125 91.9688,103.0547 Q91.2813,101.9844 91.2813,100.7031 L91.2813,99.5469 Q91.2813,98.2188 91.8984,97.0703 Q92.5156,95.9219 93.6094,95.3047 Q94.7031,94.6875 95.9375,94.6875 Q96.6719,94.6875 97.3203,94.8516 Q97.9688,95.0156 98.5156,95.375 Z "/><text fill="#000000" font-family="sans-serif" font-size="12" lengthAdjust="spacingAndGlyphs" textLength="94" x="116.25" y="104.4102">ProcessManager</text><line style="stroke: #A80036; stroke-width: 1.5;" x1="51" x2="243" y1="115.5" y2="115.5"/><rect fill="none" height="6" style="stroke: #C82930; stroke-width: 1.0;" width="6" x="58" y="124.918"/><text fill="#000000" font-family="sans-serif" font-size="11" lengthAdjust="spacingAndGlyphs" textLength="159" x="70" y="130.9189">pipeproc_handler : ProcessPipes</text><rect fill="none" height="6" style="stroke: #C82930; stroke-width: 1.0;" width="6" x="58" y="138.7539"/><text fill="#000000" font-family="sans-serif" font-size="11" lengthAdjust="spacingAndGlyphs" textLength="122" x="70" y="144.7549">_thread_handler : Thread</text><rect fill="none" height="6" style="stroke: #C82930; stroke-width: 1.0;" width="6" x="58" y="152.5898"/><text fill="#000000" font-family="sans-serif" font-size="11" lengthAdjust="spacingAndGlyphs" textLength="79" x="70" y="158.5908">_loader : Loader</text><rect fill="none" height="6" style="stroke: #C82930; stroke-width: 1.0;" width="6" x="58" y="166.4258"/><text fill="#000000" font-family="sans-serif" font-size="11" lengthAdjust="spacingAndGlyphs" textLength="62" x="70" y="172.4268">_cmd : string</text><rect fill="none" height="6" style="stroke: #C82930; stroke-width: 1.0;" width="6" x="58" y="180.2617"/><text fill="#000000" font-family="sans-serif" font-size="11" lengthAdjust="spacingAndGlyphs" textLength="73" x="70" y="186.2627">buf : OutBuffer</text><line style="stroke: #A80036; stroke-width: 1.5;" x1="51" x2="243" y1="192.6797" y2="192.6797"/><ellipse cx="61" cy="205.0977" fill="#84BE84" rx="3" ry="3" style="stroke: #038048; stroke-width: 1.0;"/><text fill="#000000" font-family="sans-serif" font-size="11" lengthAdjust="spacingAndGlyphs" textLength="92" x="70" y="208.0986">this(Loader loader)</text><ellipse cx="61" cy="218.9336" fill="#84BE84" rx="3" ry="3" style="stroke: #038048; stroke-width: 1.0;"/><text fill="#000000" font-family="sans-serif" font-size="11" lengthAdjust="spacingAndGlyphs" textLength="168" x="70" y="221.9346">void runCmdThread(string runcmd)</text><ellipse cx="61" cy="232.7695" fill="#84BE84" rx="3" ry="3" style="stroke: #038048; stroke-width: 1.0;"/><text fill="#000000" font-family="sans-serif" font-size="11" lengthAdjust="spacingAndGlyphs" textLength="112" x="70" y="235.7705">string getBufferString()</text><rect fill="#F24D5C" height="6" style="stroke: #C82930; stroke-width: 1.0;" width="6" x="58" y="243.6055"/><text fill="#000000" font-family="sans-serif" font-size="11" lengthAdjust="spacingAndGlyphs" textLength="102" x="70" y="249.6064">createNewProcess()</text><rect fill="#F24D5C" height="6" style="stroke: #C82930; stroke-width: 1.0;" width="6" x="58" y="257.4414"/><text fill="#000000" font-family="sans-serif" font-size="11" lengthAdjust="spacingAndGlyphs" textLength="68" x="70" y="263.4424">void runCmd()</text><!--class Student--><rect fill="#FEFECE" filter="url(#f1muoa7h8r45c8)" height="336.7188" id="Student" style="stroke: #A80036; stroke-width: 1.5;" width="194" x="279" y="8"/><ellipse cx="350.75" cy="24" fill="#ADD1B2" rx="11" ry="11" style="stroke: #A80036; stroke-width: 1.0;"/><path d="M353.5156,19.875 Q353.6719,19.6563 353.8594,19.5469 Q354.0469,19.4375 354.2656,19.4375 Q354.6406,19.4375 354.875,19.6953 Q355.1094,19.9531 355.1094,20.5625 L355.1094,22.0156 Q355.1094,22.625 354.875,22.8906 Q354.6406,23.1563 354.2656,23.1563 Q353.9219,23.1563 353.7188,22.9531 Q353.5156,22.7656 353.4063,22.25 Q353.3594,21.8906 353.1719,21.7031 Q352.8438,21.3281 352.2344,21.1094 Q351.625,20.8906 351,20.8906 Q350.2344,20.8906 349.6016,21.2188 Q348.9688,21.5469 348.4766,22.2969 Q347.9844,23.0469 347.9844,24.0781 L347.9844,25.1719 Q347.9844,26.4063 348.875,27.2266 Q349.7656,28.0469 351.3594,28.0469 Q352.2969,28.0469 352.9531,27.7969 Q353.3438,27.6406 353.7656,27.2031 Q354.0313,26.9375 354.1797,26.8594 Q354.3281,26.7813 354.5313,26.7813 Q354.8594,26.7813 355.1172,27.0391 Q355.375,27.2969 355.375,27.6406 Q355.375,27.9844 355.0313,28.3906 Q354.5313,28.9688 353.7344,29.2969 Q352.6563,29.75 351.3594,29.75 Q349.8438,29.75 348.6406,29.125 Q347.6563,28.625 346.9688,27.5547 Q346.2813,26.4844 346.2813,25.2031 L346.2813,24.0469 Q346.2813,22.7188 346.8984,21.5703 Q347.5156,20.4219 348.6094,19.8047 Q349.7031,19.1875 350.9375,19.1875 Q351.6719,19.1875 352.3203,19.3516 Q352.9688,19.5156 353.5156,19.875 Z "/><text fill="#000000" font-family="sans-serif" font-size="12" lengthAdjust="spacingAndGlyphs" textLength="42" x="371.25" y="28.9102">Student</text><line style="stroke: #A80036; stroke-width: 1.5;" x1="280" x2="472" y1="40" y2="40"/><ellipse cx="290" cy="70.2539" fill="#84BE84" rx="3" ry="3" style="stroke: #038048; stroke-width: 1.0;"/><text fill="#000000" font-family="sans-serif" font-size="11" lengthAdjust="spacingAndGlyphs" textLength="50" x="299" y="73.2549">getName()</text><ellipse cx="290" cy="84.0898" fill="#84BE84" rx="3" ry="3" style="stroke: #038048; stroke-width: 1.0;"/><text fill="#000000" font-family="sans-serif" font-size="11" lengthAdjust="spacingAndGlyphs" textLength="65" x="299" y="87.0908">getAddress()</text><line style="stroke: #A80036; stroke-width: 1.0; stroke-dasharray: 1.0,2.0;" x1="280" x2="344" y1="54.918" y2="54.918"/><text fill="#000000" font-family="sans-serif" font-size="11" lengthAdjust="spacingAndGlyphs" textLength="64" x="344" y="58.9189">Simple Getter</text><line style="stroke: #A80036; stroke-width: 1.0; stroke-dasharray: 1.0,2.0;" x1="408" x2="472" y1="54.918" y2="54.918"/><ellipse cx="290" cy="115.7617" fill="#84BE84" rx="3" ry="3" style="stroke: #038048; stroke-width: 1.0;"/><text fill="#000000" font-family="sans-serif" font-size="11" lengthAdjust="spacingAndGlyphs" textLength="50" x="299" y="118.7627">setName()</text><line style="stroke: #A80036; stroke-width: 1.0; stroke-dasharray: 1.0,2.0;" x1="280" x2="347" y1="100.4258" y2="100.4258"/><text fill="#000000" font-family="sans-serif" font-size="11" lengthAdjust="spacingAndGlyphs" textLength="58" x="347" y="104.4268">Some setter</text><line style="stroke: #A80036; stroke-width: 1.0; stroke-dasharray: 1.0,2.0;" x1="405" x2="472" y1="100.4258" y2="100.4258"/><ellipse cx="290" cy="147.4336" fill="#84BE84" rx="3" ry="3" style="stroke: #038048; stroke-width: 1.0;"/><text fill="#000000" font-family="sans-serif" font-size="11" lengthAdjust="spacingAndGlyphs" textLength="92" x="299" y="150.4346">this(Loader loader)</text><ellipse cx="290" cy="161.2695" fill="#84BE84" rx="3" ry="3" style="stroke: #038048; stroke-width: 1.0;"/><text fill="#000000" font-family="sans-serif" font-size="11" lengthAdjust="spacingAndGlyphs" textLength="168" x="299" y="164.2705">void runCmdThread(string runcmd)</text><ellipse cx="290" cy="175.1055" fill="#84BE84" rx="3" ry="3" style="stroke: #038048; stroke-width: 1.0;"/><text fill="#000000" font-family="sans-serif" font-size="11" lengthAdjust="spacingAndGlyphs" textLength="112" x="299" y="178.1064">string getBufferString()</text><rect fill="#F24D5C" height="6" style="stroke: #C82930; stroke-width: 1.0;" width="6" x="287" y="185.9414"/><text fill="#000000" font-family="sans-serif" font-size="11" lengthAdjust="spacingAndGlyphs" textLength="102" x="299" y="191.9424">createNewProcess()</text><rect fill="#F24D5C" height="6" style="stroke: #C82930; stroke-width: 1.0;" width="6" x="287" y="199.7773"/><text fill="#000000" font-family="sans-serif" font-size="11" lengthAdjust="spacingAndGlyphs" textLength="68" x="299" y="205.7783">void runCmd()</text><rect fill="none" height="6" style="stroke: #C82930; stroke-width: 1.0;" width="6" x="287" y="213.6133"/><text fill="#000000" font-family="sans-serif" font-size="11" lengthAdjust="spacingAndGlyphs" textLength="153" x="299" y="219.6143">ProcessPipes pipeproc_handler</text><rect fill="none" height="6" style="stroke: #C82930; stroke-width: 1.0;" width="6" x="287" y="227.4492"/><text fill="#000000" font-family="sans-serif" font-size="11" lengthAdjust="spacingAndGlyphs" textLength="116" x="299" y="233.4502">Thread _thread_handler</text><rect fill="none" height="6" style="stroke: #C82930; stroke-width: 1.0;" width="6" x="287" y="241.2852"/><text fill="#000000" font-family="sans-serif" font-size="11" lengthAdjust="spacingAndGlyphs" textLength="73" x="299" y="247.2861">Loader _loader</text><rect fill="none" height="6" style="stroke: #C82930; stroke-width: 1.0;" width="6" x="287" y="255.1211"/><text fill="#000000" font-family="sans-serif" font-size="11" lengthAdjust="spacingAndGlyphs" textLength="56" x="299" y="261.1221">string _cmd</text><rect fill="none" height="6" style="stroke: #C82930; stroke-width: 1.0;" width="6" x="287" y="268.957"/><text fill="#000000" font-family="sans-serif" font-size="11" lengthAdjust="spacingAndGlyphs" textLength="67" x="299" y="274.958">OutBuffer buf</text><line style="stroke: #A80036; stroke-width: 1.0; stroke-dasharray: 1.0,2.0;" x1="280" x2="362.5" y1="132.0977" y2="132.0977"/><text fill="#000000" font-family="sans-serif" font-size="11" lengthAdjust="spacingAndGlyphs" textLength="27" x="362.5" y="136.0986">Other</text><line style="stroke: #A80036; stroke-width: 1.0; stroke-dasharray: 1.0,2.0;" x1="389.5" x2="472" y1="132.0977" y2="132.0977"/><text fill="#000000" font-family="sans-serif" font-size="11" lengthAdjust="spacingAndGlyphs" textLength="32" x="285" y="306.6299">int age</text><line style="stroke: #A80036; stroke-width: 1.5;" x1="280" x2="347.5" y1="288.293" y2="288.293"/><text fill="#000000" font-family="sans-serif" font-size="11" lengthAdjust="spacingAndGlyphs" textLength="57" x="347.5" y="292.2939">private data</text><line style="stroke: #A80036; stroke-width: 1.5;" x1="404.5" x2="472" y1="288.293" y2="288.293"/><text fill="#000000" font-family="sans-serif" font-size="11" lengthAdjust="spacingAndGlyphs" textLength="81" x="285" y="338.3018">String password</text><line style="stroke: #A80036; stroke-width: 1.0;" x1="280" x2="351.5" y1="319.9648" y2="319.9648"/><text fill="#000000" font-family="sans-serif" font-size="11" lengthAdjust="spacingAndGlyphs" textLength="49" x="351.5" y="323.9658">encrypted</text><line style="stroke: #A80036; stroke-width: 1.0;" x1="400.5" x2="472" y1="319.9648" y2="319.9648"/><!--class Loader--><rect fill="#FEFECE" filter="url(#f1muoa7h8r45c8)" height="324.7188" id="Loader" style="stroke: #A80036; stroke-width: 1.5;" width="282" x="6" y="405"/><ellipse cx="123.25" cy="421" fill="#ADD1B2" rx="11" ry="11" style="stroke: #A80036; stroke-width: 1.0;"/><path d="M126.0156,416.875 Q126.1719,416.6563 126.3594,416.5469 Q126.5469,416.4375 126.7656,416.4375 Q127.1406,416.4375 127.375,416.6953 Q127.6094,416.9531 127.6094,417.5625 L127.6094,419.0156 Q127.6094,419.625 127.375,419.8906 Q127.1406,420.1563 126.7656,420.1563 Q126.4219,420.1563 126.2188,419.9531 Q126.0156,419.7656 125.9063,419.25 Q125.8594,418.8906 125.6719,418.7031 Q125.3438,418.3281 124.7344,418.1094 Q124.125,417.8906 123.5,417.8906 Q122.7344,417.8906 122.1016,418.2188 Q121.4688,418.5469 120.9766,419.2969 Q120.4844,420.0469 120.4844,421.0781 L120.4844,422.1719 Q120.4844,423.4063 121.375,424.2266 Q122.2656,425.0469 123.8594,425.0469 Q124.7969,425.0469 125.4531,424.7969 Q125.8438,424.6406 126.2656,424.2031 Q126.5313,423.9375 126.6797,423.8594 Q126.8281,423.7813 127.0313,423.7813 Q127.3594,423.7813 127.6172,424.0391 Q127.875,424.2969 127.875,424.6406 Q127.875,424.9844 127.5313,425.3906 Q127.0313,425.9688 126.2344,426.2969 Q125.1563,426.75 123.8594,426.75 Q122.3438,426.75 121.1406,426.125 Q120.1563,425.625 119.4688,424.5547 Q118.7813,423.4844 118.7813,422.2031 L118.7813,421.0469 Q118.7813,419.7188 119.3984,418.5703 Q120.0156,417.4219 121.1094,416.8047 Q122.2031,416.1875 123.4375,416.1875 Q124.1719,416.1875 124.8203,416.3516 Q125.4688,416.5156 126.0156,416.875 Z "/><text fill="#000000" font-family="sans-serif" font-size="12" lengthAdjust="spacingAndGlyphs" textLength="39" x="143.75" y="425.9102">Loader</text><line style="stroke: #A80036; stroke-width: 1.5;" x1="7" x2="287" y1="437" y2="437"/><ellipse cx="17" cy="449.418" fill="none" rx="3" ry="3" style="stroke: #038048; stroke-width: 1.0;"/><text fill="#000000" font-family="sans-serif" font-size="11" lengthAdjust="spacingAndGlyphs" textLength="81" x="26" y="452.4189">exe_path : string</text><ellipse cx="17" cy="463.2539" fill="none" rx="3" ry="3" style="stroke: #038048; stroke-width: 1.0;"/><text fill="#000000" font-family="sans-serif" font-size="11" lengthAdjust="spacingAndGlyphs" textLength="110" x="26" y="466.2549">instances_path : string</text><ellipse cx="17" cy="477.0898" fill="none" rx="3" ry="3" style="stroke: #038048; stroke-width: 1.0;"/><text fill="#000000" font-family="sans-serif" font-size="11" lengthAdjust="spacingAndGlyphs" textLength="116" x="26" y="480.0908">instances_path2 : string</text><rect fill="none" height="6" style="stroke: #C82930; stroke-width: 1.0;" width="6" x="14" y="487.9258"/><text fill="#000000" font-family="sans-serif" font-size="11" lengthAdjust="spacingAndGlyphs" textLength="124" x="26" y="493.9268">DataSystem _dataSystem</text><rect fill="none" height="6" style="stroke: #C82930; stroke-width: 1.0;" width="6" x="14" y="501.7617"/><text fill="#000000" font-family="sans-serif" font-size="11" lengthAdjust="spacingAndGlyphs" textLength="136" x="26" y="507.7627">DatabaseSystem _database</text><rect fill="none" height="6" style="stroke: #C82930; stroke-width: 1.0;" width="6" x="14" y="515.5977"/><text fill="#000000" font-family="sans-serif" font-size="11" lengthAdjust="spacingAndGlyphs" textLength="155" x="26" y="521.5986">ProcessManager _processMngr</text><rect fill="none" height="6" style="stroke: #C82930; stroke-width: 1.0;" width="6" x="14" y="529.4336"/><text fill="#000000" font-family="sans-serif" font-size="11" lengthAdjust="spacingAndGlyphs" textLength="136" x="26" y="535.4346">ConfigManager _configMngr</text><rect fill="none" height="6" style="stroke: #C82930; stroke-width: 1.0;" width="6" x="14" y="543.2695"/><text fill="#000000" font-family="sans-serif" font-size="11" lengthAdjust="spacingAndGlyphs" textLength="118" x="26" y="549.2705">string _selectedInstance</text><line style="stroke: #A80036; stroke-width: 1.5;" x1="7" x2="287" y1="555.6875" y2="555.6875"/><ellipse cx="17" cy="568.1055" fill="#84BE84" rx="3" ry="3" style="stroke: #038048; stroke-width: 1.0;"/><text fill="#000000" font-family="sans-serif" font-size="11" lengthAdjust="spacingAndGlyphs" textLength="25" x="26" y="571.1064">this()</text><ellipse cx="17" cy="581.9414" fill="#84BE84" rx="3" ry="3" style="stroke: #038048; stroke-width: 1.0;"/><text fill="#000000" font-family="sans-serif" font-size="11" lengthAdjust="spacingAndGlyphs" textLength="241" x="26" y="584.9424">void setSelectedInstance(string selectedInstance)</text><ellipse cx="17" cy="595.7773" fill="#84BE84" rx="3" ry="3" style="stroke: #038048; stroke-width: 1.0;"/><text fill="#000000" font-family="sans-serif" font-size="11" lengthAdjust="spacingAndGlyphs" textLength="121" x="26" y="598.7783">string getInstanceName()</text><ellipse cx="17" cy="609.6133" fill="#84BE84" rx="3" ry="3" style="stroke: #038048; stroke-width: 1.0;"/><text fill="#000000" font-family="sans-serif" font-size="11" lengthAdjust="spacingAndGlyphs" textLength="256" x="26" y="612.6143">void changeLogState(immutable string msg, int index)</text><ellipse cx="17" cy="623.4492" fill="#84BE84" rx="3" ry="3" style="stroke: #038048; stroke-width: 1.0;"/><text fill="#000000" font-family="sans-serif" font-size="11" lengthAdjust="spacingAndGlyphs" textLength="234" x="26" y="626.4502">bool addInstance(string instanceName, int game)</text><ellipse cx="17" cy="637.2852" fill="#84BE84" rx="3" ry="3" style="stroke: #038048; stroke-width: 1.0;"/><text fill="#000000" font-family="sans-serif" font-size="11" lengthAdjust="spacingAndGlyphs" textLength="256" x="26" y="640.2861">bool addInstanceData(string instanceName, int game)</text><ellipse cx="17" cy="651.1211" fill="#84BE84" rx="3" ry="3" style="stroke: #038048; stroke-width: 1.0;"/><text fill="#000000" font-family="sans-serif" font-size="11" lengthAdjust="spacingAndGlyphs" textLength="206" x="26" y="654.1221">bool removeInstance(string instanceName)</text><ellipse cx="17" cy="664.957" fill="#84BE84" rx="3" ry="3" style="stroke: #038048; stroke-width: 1.0;"/><text fill="#000000" font-family="sans-serif" font-size="11" lengthAdjust="spacingAndGlyphs" textLength="234" x="26" y="667.958">GameInstance getInstance(string instanceName)</text><ellipse cx="17" cy="678.793" fill="#84BE84" rx="3" ry="3" style="stroke: #038048; stroke-width: 1.0;"/><text fill="#000000" font-family="sans-serif" font-size="11" lengthAdjust="spacingAndGlyphs" textLength="158" x="26" y="681.7939">GameInstance[] fetchInstances()</text><ellipse cx="17" cy="692.6289" fill="#84BE84" rx="3" ry="3" style="stroke: #038048; stroke-width: 1.0;"/><text fill="#000000" font-family="sans-serif" font-size="11" lengthAdjust="spacingAndGlyphs" textLength="192" x="26" y="695.6299">bool startInstance(string instanceName)</text><ellipse cx="17" cy="706.4648" fill="#84BE84" rx="3" ry="3" style="stroke: #038048; stroke-width: 1.0;"/><text fill="#000000" font-family="sans-serif" font-size="11" lengthAdjust="spacingAndGlyphs" textLength="161" x="26" y="709.4658">bool updateInstance(string name)</text><rect fill="#F24D5C" height="6" style="stroke: #C82930; stroke-width: 1.0;" width="6" x="14" y="717.3008"/><text fill="#000000" font-family="sans-serif" font-size="11" lengthAdjust="spacingAndGlyphs" textLength="117" x="26" y="723.3018">void installEnvironment()</text><!--class ConfigManager--><rect fill="#FEFECE" filter="url(#f1muoa7h8r45c8)" height="117.1797" id="ConfigManager" style="stroke: #A80036; stroke-width: 1.5;" width="123" x="323.5" y="509"/><ellipse cx="341.65" cy="525" fill="#ADD1B2" rx="11" ry="11" style="stroke: #A80036; stroke-width: 1.0;"/><path d="M344.4156,520.875 Q344.5719,520.6563 344.7594,520.5469 Q344.9469,520.4375 345.1656,520.4375 Q345.5406,520.4375 345.775,520.6953 Q346.0094,520.9531 346.0094,521.5625 L346.0094,523.0156 Q346.0094,523.625 345.775,523.8906 Q345.5406,524.1563 345.1656,524.1563 Q344.8219,524.1563 344.6188,523.9531 Q344.4156,523.7656 344.3063,523.25 Q344.2594,522.8906 344.0719,522.7031 Q343.7438,522.3281 343.1344,522.1094 Q342.525,521.8906 341.9,521.8906 Q341.1344,521.8906 340.5016,522.2188 Q339.8688,522.5469 339.3766,523.2969 Q338.8844,524.0469 338.8844,525.0781 L338.8844,526.1719 Q338.8844,527.4063 339.775,528.2266 Q340.6656,529.0469 342.2594,529.0469 Q343.1969,529.0469 343.8531,528.7969 Q344.2438,528.6406 344.6656,528.2031 Q344.9313,527.9375 345.0797,527.8594 Q345.2281,527.7813 345.4313,527.7813 Q345.7594,527.7813 346.0172,528.0391 Q346.275,528.2969 346.275,528.6406 Q346.275,528.9844 345.9313,529.3906 Q345.4313,529.9688 344.6344,530.2969 Q343.5563,530.75 342.2594,530.75 Q340.7438,530.75 339.5406,530.125 Q338.5563,529.625 337.8688,528.5547 Q337.1813,527.4844 337.1813,526.2031 L337.1813,525.0469 Q337.1813,523.7188 337.7984,522.5703 Q338.4156,521.4219 339.5094,520.8047 Q340.6031,520.1875 341.8375,520.1875 Q342.5719,520.1875 343.2203,520.3516 Q343.8688,520.5156 344.4156,520.875 Z "/><text fill="#000000" font-family="sans-serif" font-size="12" lengthAdjust="spacingAndGlyphs" textLength="84" x="356.35" y="529.9102">ConfigManager</text><line style="stroke: #A80036; stroke-width: 1.5;" x1="324.5" x2="445.5" y1="541" y2="541"/><rect fill="none" height="6" style="stroke: #C82930; stroke-width: 1.0;" width="6" x="331.5" y="550.418"/><text fill="#000000" font-family="sans-serif" font-size="11" lengthAdjust="spacingAndGlyphs" textLength="79" x="343.5" y="556.4189">_loader : Loader</text><rect fill="none" height="6" style="stroke: #C82930; stroke-width: 1.0;" width="6" x="331.5" y="564.2539"/><text fill="#000000" font-family="sans-serif" font-size="11" lengthAdjust="spacingAndGlyphs" textLength="86" x="343.5" y="570.2549">_initConfig : string</text><line style="stroke: #A80036; stroke-width: 1.5;" x1="324.5" x2="445.5" y1="576.6719" y2="576.6719"/><ellipse cx="334.5" cy="589.0898" fill="#84BE84" rx="3" ry="3" style="stroke: #038048; stroke-width: 1.0;"/><text fill="#000000" font-family="sans-serif" font-size="11" lengthAdjust="spacingAndGlyphs" textLength="92" x="343.5" y="592.0908">this(Loader loader)</text><ellipse cx="334.5" cy="602.9258" fill="#84BE84" rx="3" ry="3" style="stroke: #038048; stroke-width: 1.0;"/><text fill="#000000" font-family="sans-serif" font-size="11" lengthAdjust="spacingAndGlyphs" textLength="71" x="343.5" y="605.9268">void serialize()</text><ellipse cx="334.5" cy="616.7617" fill="#84BE84" rx="3" ry="3" style="stroke: #038048; stroke-width: 1.0;"/><text fill="#000000" font-family="sans-serif" font-size="11" lengthAdjust="spacingAndGlyphs" textLength="97" x="343.5" y="619.7627">string getInitConfig()</text><!--class DataSystem--><rect fill="#FEFECE" filter="url(#f1muoa7h8r45c8)" height="172.5234" id="DataSystem" style="stroke: #A80036; stroke-width: 1.5;" width="260" x="482" y="481"/><ellipse cx="574.25" cy="497" fill="#ADD1B2" rx="11" ry="11" style="stroke: #A80036; stroke-width: 1.0;"/><path d="M577.0156,492.875 Q577.1719,492.6563 577.3594,492.5469 Q577.5469,492.4375 577.7656,492.4375 Q578.1406,492.4375 578.375,492.6953 Q578.6094,492.9531 578.6094,493.5625 L578.6094,495.0156 Q578.6094,495.625 578.375,495.8906 Q578.1406,496.1563 577.7656,496.1563 Q577.4219,496.1563 577.2188,495.9531 Q577.0156,495.7656 576.9063,495.25 Q576.8594,494.8906 576.6719,494.7031 Q576.3438,494.3281 575.7344,494.1094 Q575.125,493.8906 574.5,493.8906 Q573.7344,493.8906 573.1016,494.2188 Q572.4688,494.5469 571.9766,495.2969 Q571.4844,496.0469 571.4844,497.0781 L571.4844,498.1719 Q571.4844,499.4063 572.375,500.2266 Q573.2656,501.0469 574.8594,501.0469 Q575.7969,501.0469 576.4531,500.7969 Q576.8438,500.6406 577.2656,500.2031 Q577.5313,499.9375 577.6797,499.8594 Q577.8281,499.7813 578.0313,499.7813 Q578.3594,499.7813 578.6172,500.0391 Q578.875,500.2969 578.875,500.6406 Q578.875,500.9844 578.5313,501.3906 Q578.0313,501.9688 577.2344,502.2969 Q576.1563,502.75 574.8594,502.75 Q573.3438,502.75 572.1406,502.125 Q571.1563,501.625 570.4688,500.5547 Q569.7813,499.4844 569.7813,498.2031 L569.7813,497.0469 Q569.7813,495.7188 570.3984,494.5703 Q571.0156,493.4219 572.1094,492.8047 Q573.2031,492.1875 574.4375,492.1875 Q575.1719,492.1875 575.8203,492.3516 Q576.4688,492.5156 577.0156,492.875 Z "/><text fill="#000000" font-family="sans-serif" font-size="12" lengthAdjust="spacingAndGlyphs" textLength="67" x="594.75" y="501.9102">DataSystem</text><line style="stroke: #A80036; stroke-width: 1.5;" x1="483" x2="741" y1="513" y2="513"/><rect fill="none" height="6" style="stroke: #C82930; stroke-width: 1.0;" width="6" x="490" y="522.418"/><text fill="#000000" font-family="sans-serif" font-size="11" lengthAdjust="spacingAndGlyphs" textLength="163" x="502" y="528.4189">_gameInstances : GameInstance[]</text><rect fill="none" height="6" style="stroke: #C82930; stroke-width: 1.0;" width="6" x="490" y="536.2539"/><text fill="#000000" font-family="sans-serif" font-size="11" lengthAdjust="spacingAndGlyphs" textLength="79" x="502" y="542.2549">_loader : Loader</text><line style="stroke: #A80036; stroke-width: 1.5;" x1="483" x2="741" y1="548.6719" y2="548.6719"/><ellipse cx="493" cy="561.0898" fill="#84BE84" rx="3" ry="3" style="stroke: #038048; stroke-width: 1.0;"/><text fill="#000000" font-family="sans-serif" font-size="11" lengthAdjust="spacingAndGlyphs" textLength="92" x="502" y="564.0908">this(Loader loader)</text><ellipse cx="493" cy="574.9258" fill="#84BE84" rx="3" ry="3" style="stroke: #038048; stroke-width: 1.0;"/><text fill="#000000" font-family="sans-serif" font-size="11" lengthAdjust="spacingAndGlyphs" textLength="95" x="502" y="577.9268">void init(string data)</text><ellipse cx="493" cy="588.7617" fill="#84BE84" rx="3" ry="3" style="stroke: #038048; stroke-width: 1.0;"/><text fill="#000000" font-family="sans-serif" font-size="11" lengthAdjust="spacingAndGlyphs" textLength="192" x="502" y="591.7627">bool addInstance(string name, int game)</text><ellipse cx="493" cy="602.5977" fill="#84BE84" rx="3" ry="3" style="stroke: #038048; stroke-width: 1.0;"/><text fill="#000000" font-family="sans-serif" font-size="11" lengthAdjust="spacingAndGlyphs" textLength="164" x="502" y="605.5986">bool removeInstance(string name)</text><ellipse cx="493" cy="616.4336" fill="#84BE84" rx="3" ry="3" style="stroke: #038048; stroke-width: 1.0;"/><text fill="#000000" font-family="sans-serif" font-size="11" lengthAdjust="spacingAndGlyphs" textLength="140" x="502" y="619.4346">string getBinFile(string name)</text><ellipse cx="493" cy="630.2695" fill="#84BE84" rx="3" ry="3" style="stroke: #038048; stroke-width: 1.0;"/><text fill="#000000" font-family="sans-serif" font-size="11" lengthAdjust="spacingAndGlyphs" textLength="148" x="502" y="633.2705">GameInstance[] getInstances()</text><ellipse cx="493" cy="644.1055" fill="#84BE84" rx="3" ry="3" style="stroke: #038048; stroke-width: 1.0;"/><text fill="#000000" font-family="sans-serif" font-size="11" lengthAdjust="spacingAndGlyphs" textLength="234" x="502" y="647.1064">GameInstance getInstance(string instanceName)</text><!--link ProcessManager to Student--><path d="M257.103,176.5 C264.351,176.5 271.599,176.5 278.846,176.5 " fill="none" id="ProcessManager-Student" style="stroke: #A80036; stroke-width: 1.0;"/><polygon fill="#FFFFFF" points="244.057,176.5,250.057,180.5,256.057,176.5,250.057,172.5,244.057,176.5" style="stroke: #A80036; stroke-width: 1.0;"/><!--link ProcessManager to Loader--><path d="M147,282.746 C147,320.371 147,363.686 147,404.961 " fill="none" id="ProcessManager-Loader" style="stroke: #A80036; stroke-width: 1.0;"/><polygon fill="#A80036" points="147,269.688,143,275.688,147,281.688,151,275.688,147,269.688" style="stroke: #A80036; stroke-width: 1.0;"/><!--link Loader to ConfigManager--><path d="M301.484,567.5 C308.802,567.5 316.12,567.5 323.437,567.5 " fill="none" id="Loader-ConfigManager" style="stroke: #A80036; stroke-width: 1.0;"/><polygon fill="#FFFFFF" points="288.313,567.5,294.313,571.5,300.313,567.5,294.313,563.5,288.313,567.5" style="stroke: #A80036; stroke-width: 1.0;"/><!--link ConfigManager to DataSystem--><path d="M459.829,567.5 C467.164,567.5 474.499,567.5 481.833,567.5 " fill="none" id="ConfigManager-DataSystem" style="stroke: #A80036; stroke-width: 1.0;"/><polygon fill="#FFFFFF" points="446.627,567.5,452.627,571.5,458.627,567.5,452.627,563.5,446.627,567.5" style="stroke: #A80036; stroke-width: 1.0;"/><!--
@startuml classdiagram





ProcessManager o- Student
ProcessManager *- - Loader
Loader o- ConfigManager
ConfigManager o- DataSystem

class DataSystem {
	{field} - _gameInstances : GameInstance[]
	{field} - _loader : Loader
	{method} + this(Loader loader)
	{method} + void init(string data)
	{method} + bool addInstance(string name, int game)
	{method} + bool removeInstance(string name)
	{method} + string getBinFile(string name)
	{method} + GameInstance[] getInstances()
	{method} + GameInstance getInstance(string instanceName)
}

class ConfigManager {
	{field} - _loader : Loader
    {field} - _initConfig : string
	{method} + this(Loader loader)
	{method} + void serialize()
	{method} + string getInitConfig()
}

class ProcessManager {
	{field} - pipeproc_handler : ProcessPipes
	{field} - _thread_handler : Thread
	{field} - _loader : Loader
    {field} - _cmd : string
	{field} - buf : OutBuffer
	{method} + this(Loader loader)
	{method} + void runCmdThread(string runcmd)
	{method} + string getBufferString()
	{method} - createNewProcess()
	{method} - void runCmd()
}

class Loader {
	{field} + exe_path : string
	{field} + instances_path : string
	{field} + instances_path2 : string
	{field} - DataSystem _dataSystem
	{field} - DatabaseSystem _database
	{field} - ProcessManager _processMngr
	{field} - ConfigManager _configMngr
	{field} - string _selectedInstance
	{method} + this()
	{method} + void setSelectedInstance(string selectedInstance)
	{method} + string getInstanceName()
	{method} + void changeLogState(immutable string msg, int index)
	{method} + bool addInstance(string instanceName, int game)
	{method} + bool addInstanceData(string instanceName, int game)
	{method} + bool removeInstance(string instanceName)
	{method} + GameInstance getInstance(string instanceName)
	{method} + GameInstance[] fetchInstances()
	{method} + bool startInstance(string instanceName)
	{method} + bool updateInstance(string name)
	{method} - void installEnvironment()
}

class Student {
	.. Simple Getter ..
	+ getName()
	+ getAddress()
	.. Some setter ..
	+ setName()
	.. Other ..
	{method} + this(Loader loader)
	{method} + void runCmdThread(string runcmd)
	{method} + string getBufferString()
	{method} - createNewProcess()
	{method} - void runCmd()
	{field} - ProcessPipes pipeproc_handler
	{field} - Thread _thread_handler
	{field} - Loader _loader
    {field} - string _cmd
	{field} - OutBuffer buf
	__ private data __
	int age
	- - encrypted - -
	String password
}

@enduml

PlantUML version 1.2018.13(Mon Nov 26 17:11:51 GMT 2018)
(GPL source distribution)
Java Runtime: Java(TM) SE Runtime Environment
JVM: Java HotSpot(TM) 64-Bit Server VM
Java Version: 1.8.0_191-b12
Operating System: Windows 10
OS Version: 10.0
Default Encoding: UTF-8
Language: en
Country: US
--></g></svg>