<?xml version="1.0" encoding="UTF-8" standalone="no"?>
<svg
   xmlns:dc="http://purl.org/dc/elements/1.1/"
   xmlns:cc="http://creativecommons.org/ns#"
   xmlns:rdf="http://www.w3.org/1999/02/22-rdf-syntax-ns#"
   xmlns:svg="http://www.w3.org/2000/svg"
   xmlns="http://www.w3.org/2000/svg"
   xmlns:sodipodi="http://sodipodi.sourceforge.net/DTD/sodipodi-0.dtd"
   xmlns:inkscape="http://www.inkscape.org/namespaces/inkscape"
   height="248.41106"
   width="333.43832"
   id="svg26"
   version="1.1"
   viewBox="0 0 333.43833 248.41105"
   sodipodi:docname="logo.svg"
   inkscape:version="0.92.2 2405546, 2018-03-11"
   inkscape:export-filename="/mnt/stuff1/ProgrammingWorkspace/NativeProjects/Git/Gitlab/enthdev/dedicatedslave/assets/logo.svg.png"
   inkscape:export-xdpi="1000"
   inkscape:export-ydpi="1000">
  <sodipodi:namedview
     pagecolor="#ffffff"
     bordercolor="#666666"
     borderopacity="1"
     objecttolerance="10"
     gridtolerance="10"
     guidetolerance="10"
     inkscape:pageopacity="0"
     inkscape:pageshadow="2"
     inkscape:window-width="951"
     inkscape:window-height="1053"
     id="namedview18"
     showgrid="false"
     inkscape:measure-start="222.439,30.2057"
     inkscape:measure-end="223.192,33.6264"
     inkscape:zoom="0.86158116"
     inkscape:cx="155.73582"
     inkscape:cy="175.07936"
     inkscape:window-x="1923"
     inkscape:window-y="20"
     inkscape:window-maximized="0"
     inkscape:current-layer="svg26" />
  <metadata
     id="metadata30">
    <rdf:RDF>
      <cc:Work
         rdf:about="">
        <dc:format>image/svg+xml</dc:format>
        <dc:type
           rdf:resource="http://purl.org/dc/dcmitype/StillImage" />
        <dc:title />
      </cc:Work>
    </rdf:RDF>
  </metadata>
  <defs
     id="defs12">
    <linearGradient
       gradientTransform="matrix(0.9438825,0,0,0.9438825,-375.82525,-499.85945)"
       id="0"
       x1="423.60999"
       y1="578.01001"
       x2="422.88"
       y2="530.41998"
       gradientUnits="userSpaceOnUse">
      <stop
         id="stop2"
         stop-color="#1f2121" />
      <stop
         id="stop4"
         stop-color="#404447"
         offset="1" />
    </linearGradient>
    <linearGradient
       y2="503.04999"
       x2="0"
       y1="543.04999"
       gradientUnits="userSpaceOnUse"
       id="1">
      <stop
         id="stop7"
         stop-color="#d8d8d8" />
      <stop
         id="stop9"
         stop-color="#fff"
         offset="1" />
    </linearGradient>
  </defs>
  <g
     transform="translate(-0.58348276,207.12896)"
     id="g59" />
  <g
     id="g51">
    <path
       inkscape:connector-curvature="0"
       style="fill:#000000;fill-rule:evenodd;stroke-width:6.74847078"
       d="m 273.96458,49.280969 c -32.64772,0 -59.13934,26.34268 -59.43183,58.915151 l -35.95793,51.50014 c 0.33067,0.015 0.6612,0.0336 0.99146,0.0558 20.39157,6.37476 37.93727,29.49926 40.13327,48.0789 l 54.26505,-39.71432 c 32.82319,0 59.47372,-26.54719 59.47372,-59.36201 0,-32.831521 -26.65053,-59.473711 -59.47372,-59.473711 z m 0.13967,27.38389 c 17.58146,0 31.8664,14.28496 31.8664,31.866401 0,17.57311 -14.28494,31.85245 -31.8664,31.85245 -17.58144,0 -31.82451,-14.27935 -31.82451,-31.85245 0,-17.581441 14.25141,-31.866401 31.82451,-31.866401 z"
       id="path70" />
    <path
       style="stroke-width:0.02389349"
       d="m 138.45001,222.20628 c -1.86696,0.22829 -4.135,0.43102 -6.98527,0.64593 -9.70525,0.76318 -10.66625,0.69417 -13.5443,-0.51019 -3.75101,-1.59626 -7.24824,-5.12672 -8.15258,-8.17238 -0.35788,-1.28095 -0.90965,-2.53692 -1.19901,-2.81475 -0.23581,-0.3475 -3.38391,-1.26392 -6.9037,-2.0687 l -6.517597,-1.48545 -2.91262,1.95822 c -4.248922,2.83282 -6.818415,3.48059 -11.086863,2.77372 -5.614453,-0.84652 -8.548919,-3.49128 -14.344385,-12.98182 -4.585329,-7.49692 -4.870295,-8.1654 -5.496777,-12.95588 -0.577529,-4.41615 -0.50069,-5.30987 0.752333,-7.81596 1.737931,-3.64422 5.158709,-6.55019 9.335581,-7.98078 l 3.384889,-1.14685 1.75428,-7.36958 c 2.021836,-8.23569 2.031559,-8.68445 0.507878,-9.68521 -1.382003,-0.89399 -3.326376,-3.68253 -4.307327,-6.33744 -0.553414,-1.32044 -0.877173,-5.25909 -0.908509,-10.8238 l -0.125746,-8.71511 -2.128197,-1.73557 c -1.203204,-0.98243 -3.8307,-4.11918 -5.799437,-7.08588 l -3.615855,-5.35756 -2.970465,0.008 c -15.622009,0.0188 -26.6695,-3.72205 -37.71554,-12.713882 C 12.898486,94.557627 8.0591842,88.045877 4.2293252,79.563384 2.1638036,74.898446 1.6921379,73.192781 0.73227601,65.853073 -0.2195311,58.574957 -0.21958073,56.673579 0.59328441,51.759929 2.3667178,40.648225 6.4041377,31.834499 13.417358,23.071366 c 5.067449,-6.229107 9.135984,-9.932552 15.678446,-14.0773854 19.44259,-12.4103472 42.525772,-11.946337 60.503152,1.1994034 12.577154,9.109678 20.402614,21.497113 23.133694,36.576467 2.121,11.869906 0.63887,22.310831 -4.68548,32.87725 l -2.55152,5.150112 3.39665,5.189057 c 3.5543,5.417255 4.33483,7.965946 3.58736,11.92403 -0.80938,3.96377 -2.59865,6.22553 -8.55751,10.48441 l -5.838977,4.24214 1.155863,1.62332 c 0.627659,0.92999 1.465184,2.96733 1.863654,4.55864 0.93197,3.73604 0.82968,20.90057 -0.0969,23.48927 -1.677765,4.58337 -7.139345,9.21455 -11.493894,9.78403 -1.18222,0.1546 -1.65092,1.35643 -3.463766,8.29729 l -2.037592,8.11078 1.811542,1.79107 c 3.044181,2.95378 12.050823,18.59684 12.441213,21.58201 l 0.333183,2.54773 5.279734,1.28117 c 2.87459,0.6988 5.60591,1.22444 6.03947,1.16774 0.43593,-0.057 1.33767,-0.87422 1.97831,-1.7797 0.70224,-0.91354 2.59307,-2.48895 4.22876,-3.52457 2.87604,-1.70385 3.56265,-1.80188 13.37705,-2.70706 0.20632,-0.0169 10.02004,-0.91113 10.22255,-0.9268 1.08946,3.284 -0.34123,7.01343 1.09518,10.13379 -1.05388,0.0866 -8.85841,0.51182 -10.22589,0.64956 l -8.8738,0.85065 1.37005,1.21506 c 1.99355,1.70078 2.18847,4.70259 0.42609,6.70419 -0.8278,0.92996 -1.47173,1.77658 -1.44725,1.96374 0.0245,0.18716 2.48067,0.12769 5.54355,-0.14755 2.99323,-0.32871 6.93818,-0.66017 8.74918,-0.83435 0.85829,-0.0856 1.69438,-0.26052 2.47424,-0.46439 1.80702,3.02093 3.7801,5.91457 5.90713,8.6632 -1.56264,0.6773 -3.36861,1.18334 -6.29081,1.54093 z M 81.400002,202.61336 c 0.228939,-0.19102 0.304393,-0.74248 0.248689,-1.65208 -0.19407,-2.44215 2.362425,-5.18077 4.727962,-4.98409 l 1.793526,0.14566 -1.140315,-1.93517 c -5.294468,-9.04999 -6.285985,-10.30897 -7.395083,-9.59523 -2.541206,1.85043 -6.836602,0.38278 -7.21088,-2.47919 -0.224269,-1.23577 -0.225734,-1.22878 -1.220823,0.35679 -1.518208,2.41307 -1.071215,3.86704 3.52217,11.42557 3.941957,6.55272 5.987941,9.29087 6.674751,8.71772 z M 89.95546,144.838 c 0.334807,0.0197 0.586518,-0.26072 1.018982,-0.82332 0.709673,-0.85668 0.923584,-3.60984 0.872676,-9.80333 -0.04945,-8.59615 -0.732571,-12.29737 -2.079698,-11.48745 -0.411454,0.24417 -2.21915,1.36732 -4.103297,2.43784 -1.822858,1.06009 -3.513183,2.15621 -3.675871,2.36786 -0.333742,0.35932 -0.467039,12.40758 -0.229849,14.71878 0.146241,1.11825 0.477166,1.19828 2.62996,0.72638 2.027232,-0.45547 2.728846,-0.35544 4.028551,0.8674 0.781107,0.6569 1.203766,0.97639 1.53855,0.99586 z M 58.600081,102.25291 c 4.815374,-0.4246 9.631057,-1.47605 13.717668,-3.117768 8.539504,-3.393931 18.59046,-11.230078 23.543891,-18.331037 6.24514,-8.850651 8.51851,-17.563312 7.48588,-28.370703 C 102.48325,42.931736 100.76628,37.975156 95.500841,30.123779 92.032306,24.883273 90.567472,23.365241 85.362463,19.366302 75.243857,11.643576 67.265726,9.1416418 55.570366,10.165083 41.052531,11.367279 28.125012,19.00651 18.994631,31.904448 c -7.054144,9.905866 -9.8519182,19.439336 -8.942184,30.265213 0.739829,8.568517 2.720973,14.063647 7.584441,21.273587 6.048819,9.014015 16.025163,15.620783 27.298434,18.132142 4.038639,0.89356 8.849388,1.10213 13.664759,0.67752 z"
       id="path84"
       inkscape:connector-curvature="0" />
    <circle
       id="path120-3"
       cx="173.8307"
       cy="208.17328"
       style="stroke-width:6.31358671"
       r="44.776474"
       transform="rotate(-1.4734603)" />
  </g>
</svg>
