<?xml version="1.0" encoding="UTF-8" standalone="no"?>
<svg
   xmlns:dc="http://purl.org/dc/elements/1.1/"
   xmlns:cc="http://creativecommons.org/ns#"
   xmlns:rdf="http://www.w3.org/1999/02/22-rdf-syntax-ns#"
   xmlns:svg="http://www.w3.org/2000/svg"
   xmlns="http://www.w3.org/2000/svg"
   height="248.41103"
   width="336.58978"
   id="svg26"
   version="1.1"
   viewBox="0 0 336.58979 248.41102">
  <metadata
     id="metadata30">
    <rdf:RDF>
      <cc:Work
         rdf:about="">
        <dc:format>image/svg+xml</dc:format>
        <dc:type
           rdf:resource="http://purl.org/dc/dcmitype/StillImage" />
        <dc:title></dc:title>
      </cc:Work>
    </rdf:RDF>
  </metadata>
  <defs
     id="defs12">
    <linearGradient
       gradientTransform="matrix(0.9438825,0,0,0.9438825,-375.82525,-499.85945)"
       id="0"
       x1="423.60999"
       y1="578.01001"
       x2="422.88"
       y2="530.41998"
       gradientUnits="userSpaceOnUse">
      <stop
         id="stop2"
         stop-color="#1f2121" />
      <stop
         id="stop4"
         stop-color="#404447"
         offset="1" />
    </linearGradient>
    <linearGradient
       y2="503.04999"
       x2="0"
       y1="543.04999"
       gradientUnits="userSpaceOnUse"
       id="1">
      <stop
         id="stop7"
         stop-color="#d8d8d8" />
      <stop
         id="stop9"
         stop-color="#fff"
         offset="1" />
    </linearGradient>
  </defs>
  <path
     id="path70"
     d="m 277.11606,49.645752 c -32.64772,0 -59.13934,26.34268 -59.43183,58.915158 l -35.95793,51.50014 c 0.33067,0.015 0.6612,0.0336 0.99146,0.0558 20.39157,6.37476 37.93727,29.49926 40.13327,48.0789 l 54.26505,-39.71432 c 32.82319,0 59.47372,-26.54719 59.47372,-59.36201 0,-32.831528 -26.65053,-59.473718 -59.47372,-59.473718 z m 0.13967,27.38389 c 17.58146,0 31.8664,14.28496 31.8664,31.866408 0,17.57311 -14.28494,31.85245 -31.8664,31.85245 -17.58144,0 -31.82451,-14.27935 -31.82451,-31.85245 0,-17.581448 14.25141,-31.866408 31.82451,-31.866408 z"
     style="fill:#000000;fill-rule:evenodd;stroke-width:6.74847078" />
  <g
     transform="translate(-0.58348906,207.12895)"
     id="g59" />
  <g
     transform="matrix(2.1846416,-6.8077501,-6.8077501,-2.1846416,335.0436,257.19451)"
     id="g177">
    <g
       id="g88"
       transform="matrix(0.01425144,-0.03022783,0.03022783,0.01425144,-11.763811,42.245951)">
      <g
         id="g86"
         transform="matrix(0.1,0,0,-0.1,0,511)">
        <path
           style="stroke-width:0.00334189"
           d="m 10.929688,29.449219 c -0.26306,0.0022 -0.58128,0.01522 -0.9804692,0.03711 -1.3598167,0.07018 -1.4918408,0.09718 -1.8691407,0.316406 -0.4912584,0.289408 -0.9122421,0.84246 -0.9824219,1.28125 -0.026401,0.184139 -0.080144,0.368331 -0.1152343,0.41211 -0.026401,0.05247 -0.4463755,0.23666 -0.9199219,0.412109 L 5.1855469,32.232422 4.7460938,32.013672 C 4.1054527,31.697863 3.7373534,31.654629 3.1582031,31.830078 c -0.7632886,0.219228 -1.1222883,0.639239 -1.7539062,2.060547 -0.49994737,1.122876 -0.52734378,1.220753 -0.52734378,1.896484 0,0.622929 0.0268655,0.745481 0.24609378,1.070313 0.30712,0.47388 0.8342361,0.814852 1.4394531,0.9375 l 0.4902344,0.09766 0.3769531,0.990234 c 0.4297676,1.105499 0.4392552,1.167559 0.2460937,1.333985 -0.1754494,0.149048 -0.39453,0.571042 -0.4824218,0.957031 -0.052802,0.193162 -0.026268,0.745267 0.070312,1.517578 l 0.140625,1.210938 -0.2636719,0.279297 c -0.1490485,0.158071 -0.456553,0.640745 -0.6757812,1.08789 l -0.4042969,0.808594 -0.4121094,0.05273 c -2.16688407,0.280719 -3.6311602,0.999892 -5,2.447266 -0.8157563,0.85118 -1.3687939,1.842033 -1.7460937,3.087891 -0.2018504,0.68442 -0.2363282,0.929525 -0.2363282,1.964843 0,1.02663 0.034478,1.290324 0.2363282,1.957032 0.4474796,1.508865 1.1672628,2.657973 2.2988281,3.746093 0.8157563,0.771978 1.4471706,1.211801 2.42968748,1.667969 C 2.5523431,62.370459 5.7452241,61.887453 8,59.738281 c 1.5790449,-1.491487 2.439652,-3.35137 2.544922,-5.492187 0.07887,-1.684649 -0.316045,-3.10577 -1.2460939,-4.47461 l -0.4472656,-0.667968 0.3769531,-0.78125 c 0.3946777,-0.815757 0.4566995,-1.183379 0.28125,-1.71875 C 9.3256273,46.068478 9.0364606,45.787257 8.1328125,45.304688 L 7.2460938,44.822266 7.3769531,44.576172 c 0.07018,-0.14036 0.1493803,-0.438099 0.1757813,-0.666016 C 7.6142252,43.375119 7.2887307,40.996507 7.1132812,40.654297 6.7974723,40.04908 5.956037,39.505859 5.3417969,39.505859 c -0.1667605,0 -0.2535596,-0.158175 -0.6308594,-1.08789 L 4.28125,37.330078 4.5,37.048828 c 0.3686109,-0.464857 1.3339844,-2.797671 1.3339844,-3.21875 v -0.359375 l 0.7089844,-0.273437 c 0.3859887,-0.149049 0.7552495,-0.271485 0.8164062,-0.271485 0.061491,0 0.201371,0.09698 0.3066406,0.210938 0.1139586,0.113958 0.4047614,0.298151 0.6503906,0.412109 0.4297676,0.184138 0.5267682,0.18528 1.9042968,0.132813 0.02892,-0.0014 1.406157,-0.05537 1.434527,-0.05687 0.09153,-0.475202 -0.174525,-0.966471 -0.03191,-1.42527 -0.147728,0.0071 -1.237813,0.08968 -1.429961,0.09538 l -1.2460934,0.04297 0.1679688,-0.19336 c 0.2456292,-0.27203 0.2182191,-0.691871 -0.0625,-0.9375 -0.1316706,-0.113958 -0.2363281,-0.219693 -0.2363282,-0.246093 0,-0.0264 0.3417169,-0.0627 0.7714844,-0.08008 0.4210784,-0.0087 0.9741974,-0.03428 1.2285154,-0.04297 0.120584,-0.0037 0.23971,0.0054 0.351563,0.01953 0.195817,-0.451732 0.416972,-0.888823 0.662109,-1.308594 -0.228999,-0.06559 -0.488638,-0.103017 -0.90039,-0.09961 z m -7.5566411,3.751953 c 0.035215,0.02234 0.055681,0.09745 0.064453,0.224609 0.017378,0.34221 0.4215958,0.675649 0.7460938,0.605469 L 4.4296874,33.97852 4.3066405,34.267582 C 3.7365135,35.618706 3.6218386,35.811291 3.4550781,35.732422 3.0690894,35.521883 2.5,35.80333 2.5,36.207031 2.49131,36.382481 2.49098,36.381538 2.3242188,36.179691 2.0699006,35.87257 2.1055214,35.662818 2.6054688,34.531253 3.0333147,33.550992 3.2674013,33.134144 3.3730469,33.201175 Z m 2.234375,7.857422 c 0.046076,-0.0088 0.08607,0.02552 0.15625,0.0957 0.1139586,0.105938 0.1935584,0.483881 0.2988281,1.34375 0.1490485,1.193056 0.1214381,1.718751 -0.080078,1.630859 -0.061491,-0.0264 -0.3325622,-0.149379 -0.6132813,-0.263672 -0.2720301,-0.113958 -0.5263334,-0.235317 -0.5527344,-0.261718 -0.052802,-0.04378 -0.289805,-1.712278 -0.2988281,-2.03711 0,-0.157737 0.044443,-0.174838 0.3515625,-0.148437 0.289408,0.0264 0.3848972,-1.98e-4 0.5429688,-0.19336 0.096414,-0.105269 0.1492361,-0.157243 0.1953125,-0.166015 z M 2.03125,47.533203 c 0.6755221,-0.02845 1.3624563,0.03003 1.9589844,0.183594 1.2458581,0.315809 2.7818999,1.220275 3.5976562,2.115234 1.0266299,1.114188 1.4999325,2.281274 1.5527344,3.798828 0.052468,1.333416 -0.095755,2.051961 -0.6835938,3.236329 -0.3859887,0.789689 -0.5616074,1.026785 -1.2109374,1.675781 -1.263236,1.254547 -2.324308,1.746226 -3.9648438,1.816406 -2.0352134,0.09658 -3.96662066,-0.728405 -5.4667969,-2.351563 -1.1579662,-1.245858 -1.7188827,-2.517267 -1.7890625,-4.035156 -0.052802,-1.201745 0.1222895,-1.99977 0.6660156,-3.08789 C -2.633197,49.524949 -1.3694508,48.427749 0.1484375,47.875 0.69233075,47.677828 1.3557279,47.561651 2.03125,47.533203 Z"
           id="path84"
           transform="matrix(299.23151,0,0,-299.23151,1696.3085,13610.118)" />
      </g>
    </g>
    <circle
       id="path120-3"
       cx="-21.607729"
       cy="-8.0495033"
       style="stroke-width:0.88305694"
       r="6.262712"
       transform="matrix(0.32994043,-0.94400175,-0.94400175,-0.32994043,0,0)" />
  </g>
</svg>
